Coordinates
version=1
nRows=39
nColumns=18
inDegrees=yes

Units are S.I. units (second, meters, Newtons, ...)
Angles are in degrees.

endheader
time	ground_thorax_rot_x	ground_thorax_rot_y	ground_thorax_rot_z	ground_thorax_tx	ground_thorax_ty	ground_thorax_tz	clav_prot	clav_elev	scapula_abduction	scapula_elevation	scapula_upward_rot	scapula_winging	plane_elv	shoulder_elv	axial_rot	elbow_flexion	pro_sup
      3.86000000	     -0.86956185	     -8.62538561	    -10.39477102	     -0.00423131	      0.00403036	     -0.00078352	    -46.63421268	      8.94174090	     -5.68730595	     -2.30853135	     80.40804251	    -13.86290455	     28.95309491	     81.40444531	     -8.72504194	      0.00000000	     34.32000000
      3.87000000	     -0.94642149	     -8.42461342	    -10.72408266	     -0.00423131	      0.00403036	     -0.00078352	    -46.79832669	      8.67089766	     -6.03692492	     -2.52401869	     80.20539411	    -13.92744159	     28.64208597	     81.54855833	     -8.37995044	      0.00000000	     34.32000000
      3.88000000	     -0.86424258	     -8.54907154	    -10.69677053	     -0.00423131	      0.00403036	     -0.00078352	    -46.79114000	      8.71848952	     -6.08967851	     -2.49824091	     80.13681562	    -13.94576794	     28.62731121	     81.45333762	     -8.40148985	      0.00000000	     34.32000000
      3.89000000	     -0.84263917	     -8.37625719	    -10.44754399	     -0.00423131	      0.00403036	     -0.00078352	    -46.95453745	      9.11104351	     -6.61009614	     -2.26591216	     79.94004569	    -14.20133298	     28.79162158	     81.13150520	     -8.36925890	      0.00000000	     34.32000000
      3.90000000	     -0.72256377	     -8.32023309	    -10.33540735	     -0.00423131	      0.00403036	     -0.00078352	    -46.98491138	      9.33014072	     -6.72287931	     -2.12141240	     79.93493266	    -14.28596769	     28.62765272	     81.08377860	     -8.98446105	      0.00000000	     34.32000000
      3.91000000	     -0.65163249	     -8.30731392	    -10.27095941	     -0.00423131	      0.00403036	     -0.00078352	    -46.98232508	      9.30780603	     -6.73457423	     -2.13908477	     79.90593815	    -14.28141066	     28.57137976	     81.06734550	     -8.99549165	      0.00000000	     34.32000000
      3.92000000	     -0.90146110	     -8.27001713	    -10.44353206	     -0.00423131	      0.00403036	     -0.00078352	    -46.79378930	      8.88870529	     -6.50417287	     -2.43099970	     79.65401060	    -14.06498070	     27.96523718	     81.13719642	     -8.91503449	      0.00000000	     34.32000000
      3.93000000	     -0.88845136	     -8.35190448	    -10.36344222	     -0.00423131	      0.00403036	     -0.00078352	    -46.64292865	      8.91073998	     -6.34362395	     -2.41478896	     79.54864517	    -13.98124067	     27.60172276	     80.90795265	     -9.18414608	      0.00000000	     34.32000000
      3.94000000	     -0.78553857	     -8.32638530	    -10.39725800	     -0.00423131	      0.00403036	     -0.00078352	    -46.62502118	      9.01744530	     -6.45621734	     -2.35574323	     79.39951422	    -14.02022035	     27.35605151	     80.79942679	     -9.22927456	      0.00000000	     34.32000000
      3.95000000	     -0.77656893	     -8.33516631	    -10.29180768	     -0.00423131	      0.00403036	     -0.00078352	    -46.65447505	      9.30738447	     -6.68740911	     -2.17601980	     79.26223989	    -14.14167677	     27.11285570	     80.54916226	    -10.31314386	      0.00000000	     34.32000000
      3.96000000	     -0.82858437	     -8.34784536	    -10.38595933	     -0.00423131	      0.00403036	     -0.00078352	    -46.58821393	      9.25918358	     -6.77493057	     -2.22912234	     78.98731067	    -14.11946320	     26.93452994	     80.53812719	     -9.96646181	      0.00000000	     34.32000000
      3.97000000	     -0.81865442	     -8.32392618	    -10.32009398	     -0.00423131	      0.00403036	     -0.00078352	    -46.58155758	      9.27297443	     -6.82721019	     -2.22666136	     78.90916903	    -14.12918033	     26.87576917	     80.30807798	    -10.05208745	      0.00000000	     34.32000000
      3.98000000	     -0.71455584	     -8.27578190	    -10.25569209	     -0.00423131	      0.00403036	     -0.00078352	    -46.57744802	      9.24709033	     -6.83527673	     -2.24626188	     78.88054958	    -14.12284727	     26.84594555	     80.28210677	    -10.06249340	      0.00000000	     34.32000000
      3.99000000	     -0.67000676	     -8.05021325	    -10.23538633	     -0.00423131	      0.00403036	     -0.00078352	    -46.70098921	      9.24052971	     -7.16865609	     -2.27640691	     78.70401518	    -14.23014660	     26.84470126	     80.45313952	    -11.27104738	      0.00000000	     34.32000000
      4.00000000	     -0.60724908	     -8.08050446	    -10.19929612	     -0.00423131	      0.00403036	     -0.00078352	    -46.70216263	      9.22068398	     -7.18951547	     -2.29270175	     78.67202973	    -14.22938240	     26.81948528	     80.43705531	    -11.28079985	      0.00000000	     34.32000000
      4.01000000	     -0.77357663	     -7.98092170	    -10.27401904	     -0.00423131	      0.00403036	     -0.00078352	    -46.71051367	      9.18244677	     -7.45815259	     -2.35049701	     78.32237951	    -14.26981717	     26.82342898	     80.44573199	    -10.78928712	      0.00000000	     34.32000000
      4.02000000	     -0.80078505	     -7.88831418	    -10.31148353	     -0.00423131	      0.00403036	     -0.00078352	    -46.69209387	      9.28593661	     -7.67462619	     -2.30482940	     78.03616692	    -14.32312544	     26.72657935	     80.43823508	    -10.78100531	      0.00000000	     34.32000000
      4.03000000	     -0.68305748	     -7.82276630	    -10.22646546	     -0.00423131	      0.00403036	     -0.00078352	    -46.69728933	      9.41265857	     -7.81824234	     -2.23156626	     77.90501178	    -14.37938500	     26.65404771	     80.12662096	    -10.98189904	      0.00000000	     34.32000000
      4.04000000	     -0.71160700	     -7.68979692	    -10.28064564	     -0.00423131	      0.00403036	     -0.00078352	    -46.64456072	      9.14515895	     -7.93966594	     -2.43888959	     77.53524188	    -14.31225006	     26.62617044	     79.90060367	    -10.68394790	      0.00000000	     34.32000000
      4.05000000	     -0.77785458	     -7.62847415	    -10.32147879	     -0.00423131	      0.00403036	     -0.00078352	    -46.50763310	      8.81358570	     -8.02143809	     -2.69459724	     77.01621372	    -14.18300609	     26.68606403	     79.86140074	    -10.11449265	      0.00000000	     34.32000000
      4.06000000	     -0.62208326	     -7.67719794	    -10.31357541	     -0.00423131	      0.00403036	     -0.00078352	    -46.48969588	      8.81358097	     -8.04959184	     -2.69926083	     76.94129857	    -14.17948191	     26.65566085	     79.75472338	    -10.12770240	      0.00000000	     34.32000000
      4.07000000	     -0.69204901	     -7.70913382	    -10.19545513	     -0.00423131	      0.00403036	     -0.00078352	    -46.43845300	      9.03322847	     -8.20790309	     -2.56668412	     76.70544031	    -14.23682229	     26.54961867	     79.55269838	    -10.26437690	      0.00000000	     34.32000000
      4.08000000	     -0.67430363	     -7.64670197	    -10.16279334	     -0.00423131	      0.00403036	     -0.00078352	    -46.44202873	      9.11778645	     -8.42612484	     -2.52968926	     76.45841925	    -14.29242808	     26.58838414	     79.45696483	    -10.26767918	      0.00000000	     34.32000000
      4.09000000	     -0.64997340	     -7.40016814	    -10.18418371	     -0.00423131	      0.00403036	     -0.00078352	    -46.53003427	      8.99282366	     -8.77966073	     -2.64533772	     76.13517026	    -14.35243465	     26.75924331	     79.40287589	     -9.94443935	      0.00000000	     34.32000000
      4.10000000	     -0.42516897	     -7.39538698	    -10.16307649	     -0.00423131	      0.00403036	     -0.00078352	    -46.50432117	      8.97415033	     -8.80112051	     -2.66269396	     76.04616797	    -14.33894236	     26.74676965	     79.27319874	     -9.95696424	      0.00000000	     34.32000000
      4.11000000	     -0.54731212	     -7.25377715	    -10.07254492	     -0.00423131	      0.00403036	     -0.00078352	    -46.57260380	      8.99452055	     -9.26479919	     -2.68810833	     75.59042582	    -14.44121690	     26.99981343	     78.77554645	     -9.80136067	      0.00000000	     34.32000000
      4.12000000	     -0.64066429	     -7.09196145	    -10.19361062	     -0.00423131	      0.00403036	     -0.00078352	    -46.47098226	      8.80250557	     -9.40193485	     -2.84311025	     75.12647207	    -14.36266029	     26.78266193	     78.93260284	     -9.29522357	      0.00000000	     34.32000000
      4.13000000	     -0.51840454	     -7.06616158	    -10.18503396	     -0.00423131	      0.00403036	     -0.00078352	    -46.44797751	      8.81112358	     -9.41262595	     -2.83970442	     75.06750292	    -14.35560354	     26.74409184	     78.83925056	     -9.30597837	      0.00000000	     34.32000000
      4.14000000	     -0.54350988	     -7.00016897	    -10.01784779	     -0.00423131	      0.00403036	     -0.00078352	    -46.38645801	      9.01011675	     -9.53302633	     -2.71629609	     74.85538823	    -14.39504508	     26.61458338	     78.58465240	     -9.32398385	      0.00000000	     34.32000000
      4.15000000	     -0.54024786	     -6.95532959	     -9.99592900	     -0.00423131	      0.00403036	     -0.00078352	    -46.35674409	      8.99420166	     -9.68269349	     -2.74280753	     74.59203312	    -14.39656058	     26.55361100	     78.46179672	     -9.27250285	      0.00000000	     34.32000000
      4.16000000	     -0.33939272	     -6.98787176	     -9.98198861	     -0.00423131	      0.00403036	     -0.00078352	    -46.33633671	      8.97758316	     -9.71288224	     -2.75841200	     74.50393271	    -14.38616761	     26.50418482	     78.35918049	     -9.28186208	      0.00000000	     34.32000000
      4.17000000	     -0.51453788	     -7.01151644	    -10.03053712	     -0.00423131	      0.00403036	     -0.00078352	    -46.19527715	      8.77037961	     -9.76780825	     -2.91649580	     74.06053868	    -14.27111973	     26.34123557	     78.08941682	     -9.15027020	      0.00000000	     34.32000000
      4.18000000	     -0.52686001	     -6.98346551	    -10.01667388	     -0.00423131	      0.00403036	     -0.00078352	    -46.08167535	      8.70262419	     -9.80251657	     -2.97332294	     73.75338340	    -14.20280955	     26.24651350	     78.00478885	     -8.95289067	      0.00000000	     34.32000000
      4.19000000	     -0.50634929	     -6.92620321	     -9.98278436	     -0.00423131	      0.00403036	     -0.00078352	    -46.00220439	      8.71317410	     -9.86140184	     -2.97524782	     73.51531740	    -14.17447612	     26.07657221	     77.88109706	     -8.83630478	      0.00000000	     34.32000000
      4.20000000	     -0.40128455	     -6.93274598	     -9.94490169	     -0.00423131	      0.00403036	     -0.00078352	    -45.94059580	      8.81670571	     -9.92521657	     -2.91167833	     73.34312153	    -14.18011888	     25.89081175	     77.64651405	     -9.02008231	      0.00000000	     34.32000000
      4.21000000	     -0.42350293	     -6.90865744	     -9.93026940	     -0.00423131	      0.00403036	     -0.00078352	    -45.86844673	      8.84500132	    -10.12759667	     -2.91127698	     72.94154406	    -14.17554004	     25.81334819	     77.39520973	     -8.98256721	      0.00000000	     34.32000000
      4.22000000	     -0.39346953	     -6.94773815	     -9.91960826	     -0.00423131	      0.00403036	     -0.00078352	    -45.80622857	      8.81218635	    -10.29825849	     -2.94960431	     72.57920042	    -14.15478211	     25.92226778	     77.18205270	     -8.91282532	      0.00000000	     34.32000000
      4.23000000	     -0.35614894	     -6.96564275	     -9.89775019	     -0.00423131	      0.00403036	     -0.00078352	    -45.74021319	      8.74231432	    -10.43992720	     -3.01096432	     72.23293826	    -14.11797863	     26.04874162	     77.09239582	     -8.87761072	      0.00000000	     34.32000000
      4.24000000	     -0.28614640	     -6.96936961	     -9.86938389	     -0.00423131	      0.00403036	     -0.00078352	    -45.69140736	      8.72599274	    -10.59257779	     -3.03473386	     71.92851123	    -14.10471436	     26.12799662	     77.01125009	     -8.92521379	      0.00000000	     34.32000000
